#Unknown ASF file
:ROOT_YZX
:FOOT_3DOF
:FULLY-SPECIFIED
:DEGREES
475
root 7.03421 17.7797 -14.3142 -3.5595 170.439 -1.19697
lfemur -3.45429 5.4804 -15.1274
ltibia 64.4765
lfoot 13.2417 0 -4.96692
ltoes -17.9433
rfemur -16.8803 1.55558 25.1877
rtibia 37.6168
rfoot -13.1203 0 -7.62931
rtoes -8.26333
lowerback 10.9214 -1.43633 -1.6725
upperback 2.15478 -1.54287 4.72918
thorax -3.68849 -0.583254 6.12133
lowerneck -15.2269 -5.4293 -15.4999
upperneck 23.9492 -5.30839 9.62336
head 10.9618 -2.45331 5.43278
lclavicle -2.76311e-014 -4.77083e-014
lhumerus -34.6058 -3.33324 91.7117
lradius 42.4725
lwrist 4.82492
lhand -11.5837 28.2818
lfingers 7.12502
lthumb 14.4581 57.7581
rclavicle -2.76311e-014 -4.77083e-014
rhumerus -34.3704 -14.2637 -74.9896
rradius 21.9413
rwrist 7.42006
rhand -21.42 11.7853
rfingers 7.12502
rthumb 4.96884 -18.1364
476
root 7.16614 17.8292 -14.8613 -3.95162 170.604 -2.12221
lfemur -7.71233 6.20366 -13.5969
ltibia 68.1725
lfoot 7.49875 0 -4.69992
ltoes -21.098
rfemur -13.6668 1.22053 26.4371
rtibia 36.2325
rfoot -14.621 0 -7.40286
rtoes -10.4546
lowerback 11.4892 -1.12132 -1.05094
upperback 1.64653 -0.999396 5.06782
thorax -4.60776 -0.286138 6.08364
lowerneck -14.272 -5.23483 -15.0263
upperneck 25.7926 -4.64182 7.94602
head 11.3307 -2.25569 4.89807
lclavicle -1.40143e-014 3.81667e-014
lhumerus -36.6318 -1.47714 92.229
lradius 41.1027
lwrist 4.35396
lhand -13.0364 27.0911
lfingers 7.12502
lthumb 13.0581 56.6624
rclavicle -1.40143e-014 3.81667e-014
rhumerus -34.0426 -12.5491 -75.4488
rradius 22.5469
rwrist 7.38283
rhand -21.4099 11.5389
rfingers 7.12502
rthumb 4.97858 -18.3826
477
root 7.3034 17.8611 -15.3511 -3.88939 170.65 -2.83373
lfemur -12.7711 6.96234 -12.4866
ltibia 70.0619
lfoot 2.72623 0 -5.1466
ltoes -17.4561
rfemur -10.9285 2.02491 27.6544
rtibia 34.8044
rfoot -15.709 0 -8.44875
rtoes -11.3031
lowerback 10.874 -0.754586 -0.715785
upperback 2.17289 -0.469714 5.0634
thorax -3.77718 -0.0377045 5.77846
lowerneck -15.1243 -5.18586 -14.2356
upperneck 27.4203 -4.18725 6.76435
head 12.032 -2.08114 4.43985
lclavicle 1.88845e-015 -4.92986e-014
lhumerus -36.6374 0.90045 91.603
lradius 39.6278
lwrist 4.44638
lhand -14.2188 27.2521
lfingers 7.12502
lthumb 11.9182 56.8928
rclavicle 1.88845e-015 -4.92986e-014
rhumerus -31.2536 -12.2894 -76.659
rradius 22.3258
rwrist 8.06212
rhand -21.6685 12.4296
rfingers 7.12502
rthumb 4.72892 -17.4976
478
root 7.41055 17.8839 -15.8312 -3.82337 170.867 -4.25017
lfemur -17.0637 7.32816 -11.0347
ltibia 69.3382
lfoot -2.54065 0 -5.12488
ltoes -15.6935
rfemur -8.26869 2.06105 29.4386
rtibia 33.1161
rfoot -16.5324 0 -8.95146
rtoes -11.0453
lowerback 10.9521 -0.305002 0.837095
upperback 1.95626 0.332975 5.06115
thorax -4.12892 0.355531 4.77484
lowerneck -14.8251 -5.38411 -14.1384
upperneck 29.0259 -4.18654 6.39857
head 12.6163 -2.063 4.35729
lclavicle 7.15625e-015 8.74653e-015
lhumerus -37.9029 2.03107 90.9622
lradius 38.1311
lwrist 4.01095
lhand -13.551 27.6294
lfingers 7.12502
lthumb 12.5621 57.2318
rclavicle 7.15625e-015 8.74653e-015
rhumerus -30.3239 -11.7456 -77.4219
rradius 22.9523
rwrist 7.22116
rhand -22.0255 14.0031
rfingers 7.12502
rthumb 4.38419 -15.9315
479
root 7.49319 17.8772 -16.3047 -3.63855 171.268 -4.84655
lfemur -20.8429 7.36253 -10.9696
ltibia 66.4305
lfoot -6.44207 0 -4.18878
ltoes -16.695
rfemur -5.70481 1.70775 30.1981
rtibia 31.5388
rfoot -16.9046 0 -9.3824
rtoes -12.0243
lowerback 10.6927 0.113556 1.59892
upperback 2.13998 0.963496 4.92917
thorax -3.82919 0.660579 4.10665
lowerneck -15.6729 -5.63604 -14.1012
upperneck 30.527 -4.06942 5.82431
head 13.4078 -2.04722 4.20364
lclavicle 1.44119e-014 3.73715e-014
lhumerus -38.385 3.61793 90.0559
lradius 36.6791
lwrist 2.08132
lhand -10.9359 29.777
lfingers 7.12502
lthumb 15.0822 59.2075
rclavicle 1.44119e-014 3.73715e-014
rhumerus -28.5357 -9.99603 -78.4375
rradius 24.3268
rwrist 6.07895
rhand -21.9571 12.7533
rfingers 7.12502
rthumb 4.4502 -17.1799
480
root 7.56823 17.9166 -16.7825 -3.30949 171.282 -6.18994
lfemur -23.8778 7.58756 -10.1442
ltibia 61.2014
lfoot -9.31572 0 -2.42671
ltoes -16.9705
rfemur -3.16203 1.52438 31.6791
rtibia 29.2768
rfoot -17.139 0 -9.32035
rtoes -13.9773
lowerback 10.6566 0.587741 3.1127
upperback 1.93582 1.79237 4.95685
thorax -4.03272 1.06061 3.16108
lowerneck -14.3202 -5.37314 -14.6345
upperneck 31.0606 -3.56938 6.10511
head 13.3129 -1.79122 4.5359
lclavicle -8.44835e-015 2.38542e-015
lhumerus -39.334 4.16608 89.346
lradius 35.053
lwrist 2.16838
lhand -10.7575 30.2056
lfingers 7.12502
lthumb 15.2541 59.6232
rclavicle -8.44835e-015 2.38542e-015
rhumerus -28.3025 -6.77442 -79.4474
rradius 26.3497
rwrist 1.55814
rhand -22.5937 14.755
rfingers 7.12502
rthumb 3.83545 -15.1902
481
root 7.63565 17.9403 -17.2521 -2.76249 171.631 -6.58873
lfemur -26.1012 7.38817 -10.542
ltibia 53.8229
lfoot -10.7371 0 0.0697591
ltoes -17.6999
rfemur -0.571562 1.04474 32.0505
rtibia 26.5795
rfoot -17.3018 0 -9.13689
rtoes -13.1968
lowerback 10.3017 1.00792 3.56073
upperback 2.27198 2.35637 4.7484
thorax -3.4777 1.34243 2.62092
lowerneck -15.9148 -5.76841 -14.8414
upperneck 32.1049 -3.70898 5.9386
head 14.1495 -1.90443 4.52473
lclavicle 8.05078e-015 7.95139e-015
lhumerus -38.8987 5.05996 88.4005
lradius 33.1082
lwrist 1.1162
lhand -10.4539 30.3907
lfingers 7.12502
lthumb 15.5465 59.7857
rclavicle 8.05078e-015 7.95139e-015
rhumerus -26.4045 -4.23065 -80.144
rradius 28.7284
rwrist 1.70492
rhand -22.5539 11.5493
rfingers 7.12502
rthumb 3.8739 -18.3952
482
root 7.72201 17.9437 -17.7043 -2.19603 171.622 -7.65029
lfemur -27.4673 7.17139 -9.83521
ltibia 44.7965
lfoot -10.1274 0 2.13756
ltoes -16.2667
rfemur 2.1295 1.76513 33.5084
rtibia 23.386
rfoot -16.8374 0 -9.75021
rtoes -13.8994
lowerback 9.85777 1.54297 4.35075
upperback 2.41837 3.13538 4.79401
thorax -3.05887 1.73889 2.14197
lowerneck -15.7066 -5.60401 -14.8042
upperneck 32.4232 -3.24973 5.57676
head 14.1844 -1.71884 4.46897
lclavicle -3.3694e-014 -6.59965e-014
lhumerus -39.0629 6.64284 87.0573
lradius 31.6283
lwrist -0.237823
lhand -9.83882 30.9979
lfingers 7.12502
lthumb 16.1389 60.346
rclavicle -3.3694e-014 -6.59965e-014
rhumerus -25.372 -1.18919 -80.4548
rradius 31.3611
rwrist -0.49212
rhand -22.9143 11.05
rfingers 7.12502
rthumb 3.52586 -18.9005
483
root 7.78138 17.9234 -18.1878 -1.40602 172.303 -8.24148
lfemur -28.1918 5.76591 -9.62287
ltibia 34.7803
lfoot -10.8327 0 2.90957
ltoes -19.2946
rfemur 4.95029 1.15983 34.0484
rtibia 19.7973
rfoot -16.4916 0 -9.43317
rtoes -14.734
lowerback 9.41565 1.74622 4.81336
upperback 2.15785 3.39991 4.63882
thorax -3.05139 1.85311 1.70256
lowerneck -15.1641 -5.53171 -14.5267
upperneck 32.7696 -2.98163 5.08014
head 14.1763 -1.59605 4.28613
lclavicle -2.72832e-014 -8.78628e-014
lhumerus -39.6098 8.31706 85.3447
lradius 29.7327
lwrist -0.958497
lhand -10.537 30.3248
lfingers 7.12502
lthumb 15.4665 59.726
rclavicle -2.72832e-014 -8.78628e-014
rhumerus -24.4665 0.847565 -80.4507
rradius 32.9451
rwrist -1.22332
rhand -23.3552 11.5657
rfingers 7.12502
rthumb 3.10008 -18.3915
